<?xml version="1.0" standalone="no"?>
<!DOCTYPE svg PUBLIC "-//W3C//DTD SVG 20010904//EN"
 "http://www.w3.org/TR/2001/REC-SVG-20010904/DTD/svg10.dtd">
<svg version="1.0" xmlns="http://www.w3.org/2000/svg"
 width="196.000000pt" height="196.000000pt" viewBox="0 0 196.000000 196.000000"
 preserveAspectRatio="xMidYMid meet">
<metadata>
Created by potrace 1.11, written by Peter Selinger 2001-2013
</metadata>
<g transform="translate(0.000000,196.000000) scale(0.100000,-0.100000)"
fill="#000000" stroke="none">
<path d="M790 1940 c-384 -82 -663 -350 -762 -733 -17 -63 -22 -112 -22 -212
0 -71 3 -146 6 -165 57 -329 255 -593 552 -735 135 -64 243 -88 401 -89 154
-1 204 6 324 45 138 45 275 131 386 243 141 142 227 305 270 513 13 63 13 261
-1 337 -67 387 -345 685 -732 788 -109 28 -307 32 -422 8z"/>
</g>
</svg>
